<svg width="20" height="20" viewBox="0 0 20 20" fill="none" xmlns="http://www.w3.org/2000/svg">
<path d="M7.879 7.5C8.383 6.89 9.146 6.5 10 6.5C10.854 6.5 11.617 6.89 12.121 7.5C12.4528 7.90231 12.6634 8.39068 12.7282 8.90814C12.793 9.4256 12.7093 9.95081 12.4869 10.4225C12.2645 10.8942 11.9126 11.293 11.4722 11.5722C11.0317 11.8515 10.521 11.9998 9.9995 11.9998C9.478 11.9998 8.96725 11.8515 8.52683 11.5722C8.08642 11.293 7.73448 10.8942 7.51209 10.4225C7.2897 9.95081 7.20602 9.4256 7.2708 8.90814C7.33559 8.39068 7.54618 7.90231 7.878 7.5M13.749 9.25C13.749 8.618 13.593 8.022 13.317 7.5H17.5C17.8978 7.5 18.2794 7.65804 18.5607 7.93934C18.842 8.22064 19 8.60218 19 9V9.5C19 11.087 17.794 12.712 15.685 13.284C15.4683 12.8947 15.1514 12.5704 14.7673 12.3446C14.3831 12.1189 13.9456 11.9999 13.5 12H12.55C12.929 11.6493 13.2313 11.2239 13.4379 10.7506C13.6444 10.2773 13.7507 9.76639 13.75 9.25M13.5 13C13.6971 12.9995 13.8924 13.0379 14.0746 13.1131C14.2569 13.1883 14.4224 13.2988 14.5618 13.4382C14.7012 13.5776 14.8117 13.7431 14.8869 13.9254C14.9621 14.1076 15.0005 14.3029 15 14.5V15C15 16.971 13.14 19 10 19C6.86 19 5 16.971 5 15V14.5C4.99947 14.3029 5.03791 14.1076 5.11311 13.9254C5.1883 13.7431 5.29877 13.5776 5.43816 13.4382C5.57756 13.2988 5.74312 13.1883 5.92535 13.1131C6.10758 13.0379 6.30287 12.9995 6.5 13H13.5ZM1 9.5C1 11.087 2.206 12.712 4.315 13.284C4.53173 12.8947 4.84858 12.5704 5.23274 12.3446C5.6169 12.1189 6.05442 11.9999 6.5 12H7.45C7.07097 11.6493 6.76867 11.2239 6.56214 10.7506C6.35561 10.2773 6.24933 9.76639 6.25 9.25C6.25 8.618 6.406 8.022 6.683 7.5H2.5C2.10218 7.5 1.72064 7.65804 1.43934 7.93934C1.15804 8.22064 1 8.60218 1 9V9.5ZM8.75 3.75C8.75 3.02065 8.46027 2.32118 7.94454 1.80546C7.42882 1.28973 6.72935 1 6 1C5.27065 1 4.57118 1.28973 4.05546 1.80546C3.53973 2.32118 3.25 3.02065 3.25 3.75C3.25 4.47935 3.53973 5.17882 4.05546 5.69454C4.57118 6.21027 5.27065 6.5 6 6.5C6.72935 6.5 7.42882 6.21027 7.94454 5.69454C8.46027 5.17882 8.75 4.47935 8.75 3.75ZM16.75 3.75C16.75 3.02065 16.4603 2.32118 15.9445 1.80546C15.4288 1.28973 14.7293 1 14 1C13.2707 1 12.5712 1.28973 12.0555 1.80546C11.5397 2.32118 11.25 3.02065 11.25 3.75C11.25 4.47935 11.5397 5.17882 12.0555 5.69454C12.5712 6.21027 13.2707 6.5 14 6.5C14.7293 6.5 15.4288 6.21027 15.9445 5.69454C16.4603 5.17882 16.75 4.47935 16.75 3.75Z" fill="#0A0A15"/>
</svg>
