<svg width="18" height="18" viewBox="0 0 18 18" fill="none" xmlns="http://www.w3.org/2000/svg">
<path d="M2.68395 0.441786L9.00012 6.7577L15.2836 0.474511C15.4224 0.326787 15.5896 0.208613 15.7751 0.127075C15.9607 0.0455364 16.1609 0.00231422 16.3635 0C16.7975 0 17.2137 0.17239 17.5206 0.479245C17.8275 0.786101 17.9999 1.20229 17.9999 1.63625C18.0037 1.83685 17.9665 2.03612 17.8905 2.22183C17.8145 2.40753 17.7014 2.57575 17.5581 2.71617L11.1928 8.99935L17.5581 15.3644C17.8277 15.6282 17.9859 15.9854 17.9999 16.3625C17.9999 16.7964 17.8275 17.2126 17.5206 17.5195C17.2137 17.8263 16.7975 17.9987 16.3635 17.9987C16.155 18.0074 15.9469 17.9726 15.7526 17.8965C15.5582 17.8204 15.3818 17.7048 15.2345 17.5569L9.00012 11.241L2.70031 17.5406C2.56205 17.6834 2.39688 17.7974 2.21433 17.876C2.03177 17.9546 1.83546 17.9963 1.6367 17.9987C1.20273 17.9987 0.786523 17.8263 0.479654 17.5195C0.172785 17.2126 0.00038831 16.7964 0.00038831 16.3625C-0.00342675 16.1619 0.0337944 15.9626 0.109768 15.7769C0.185741 15.5912 0.298864 15.423 0.442193 15.2825L6.80746 8.99935L0.442193 2.63436C0.172504 2.37053 0.0143618 2.01326 0.00038831 1.63625C0.00038831 1.20229 0.172785 0.786101 0.479654 0.479245C0.786523 0.17239 1.20273 0 1.6367 0C2.02942 0.00490874 2.40577 0.163625 2.68395 0.441786Z" fill="black"/>
</svg>
