<svg width="19" height="18" viewBox="0 0 19 18" fill="none" xmlns="http://www.w3.org/2000/svg">
<g clip-path="url(#clip0_77_482)">
<path d="M9.81871 0.144039C9.71003 0.0510818 9.57172 0 9.42871 0C9.2857 0 9.14739 0.0510818 9.03871 0.144039L0.428711 7.52404V16.2C0.428711 16.6774 0.618353 17.1353 0.955919 17.4728C1.29348 17.8104 1.75132 18 2.22871 18H7.02871C7.18784 18 7.34045 17.9368 7.45298 17.8243C7.5655 17.7118 7.62871 17.5592 7.62871 17.4V13.8C7.62871 13.3226 7.81835 12.8648 8.15592 12.5272C8.49348 12.1897 8.95132 12 9.42871 12C9.9061 12 10.3639 12.1897 10.7015 12.5272C11.0391 12.8648 11.2287 13.3226 11.2287 13.8V17.4C11.2287 17.5592 11.2919 17.7118 11.4044 17.8243C11.517 17.9368 11.6696 18 11.8287 18H16.6287C17.1061 18 17.5639 17.8104 17.9015 17.4728C18.2391 17.1353 18.4287 16.6774 18.4287 16.2V7.52404L9.81871 0.144039Z" fill="#0A0A15"/>
</g>
<defs>
<clipPath id="clip0_77_482">
<rect width="18" height="18" fill="white" transform="translate(0.428711)"/>
</clipPath>
</defs>
</svg>
