<svg width="21" height="20" viewBox="0 0 21 20" fill="none" xmlns="http://www.w3.org/2000/svg">
<g clip-path="url(#clip0_77_491)">
<path d="M8.02483 -6.15511e-06C7.91319 0.0165961 7.80656 0.057565 7.71252 0.119994C7.71252 0.119994 6.73945 0.732302 5.69329 1.39461C4.64714 2.05615 3.48329 2.78538 3.21714 2.93307C3.20072 2.9402 3.18456 2.94789 3.16868 2.95615C2.20252 3.5523 2.00175 4.52615 1.96714 5.0723C1.96483 5.09769 1.96714 5.11846 1.96714 5.14538C1.95868 5.34999 1.96714 5.48153 1.96714 5.48153V15.53C1.96714 16.99 3.66945 17.6923 5.28483 17.6923C5.82329 17.6923 6.36175 17.6054 6.82329 17.4515C7.13099 17.2977 7.35175 16.99 7.35175 16.6823V8.60538C7.35175 6.83615 7.73637 6.00538 8.89022 5.31307C9.19791 5.15922 12.4241 2.9323 12.4241 2.9323C12.5779 2.77846 12.7364 2.46615 12.7364 2.23538V2.16307C12.7364 1.85538 12.5825 1.61999 12.3518 1.46615C12.121 1.3123 11.8133 1.3123 11.5825 1.46615C11.5056 1.54307 6.81329 4.7023 5.81329 5.24076C4.81329 5.85615 3.88022 6.00461 3.64945 5.69692C3.57791 5.62538 3.5156 5.40615 3.5056 5.1923V5.14384C3.50637 4.93461 3.56022 4.54076 3.98637 4.27846C4.41868 4.03769 5.49176 3.3523 6.53483 2.6923C6.9756 2.41307 7.03022 2.38307 7.3756 2.16307C7.42107 2.35099 7.53563 2.5149 7.69648 2.62216C7.85734 2.72943 8.05269 2.77219 8.24365 2.74193C8.4346 2.71167 8.60717 2.61061 8.72698 2.45887C8.84679 2.30713 8.90507 2.11584 8.89022 1.92307V0.769225C8.89108 0.659582 8.86849 0.551023 8.82396 0.450824C8.77944 0.350625 8.71401 0.261103 8.63206 0.188258C8.55011 0.115413 8.45353 0.0609299 8.3488 0.0284602C8.24408 -0.00400959 8.13362 -0.0137153 8.02483 -6.15511e-06ZM14.1787 2.6923C14.0564 2.71265 13.9408 2.76226 13.8418 2.83692C13.8418 2.83692 9.96945 5.4423 9.29868 5.88923C9.29055 5.89725 9.2826 5.90546 9.27483 5.91384C8.71791 6.33153 8.38791 6.82846 8.24099 7.28307C8.15866 7.53954 8.11814 7.80758 8.12099 8.07692V8.31769C8.11988 8.34152 8.11988 8.36539 8.12099 8.38923V17.6923C8.12099 19.1538 9.80406 20 11.3425 20C12.0348 20 12.6594 19.8508 13.121 19.5431C14.0441 19.0046 18.5056 15.5292 18.5056 15.5292C18.7364 15.3754 18.8902 15.1585 18.8902 14.9277V4.92769C18.8902 4.54307 18.741 4.3123 18.4333 4.15846C18.2025 4.00461 17.8233 4.07692 17.5925 4.23076C16.3618 5.15384 13.0487 7.75999 12.2794 8.22153C11.2025 8.83692 10.1879 8.99076 9.80329 8.60615C9.64945 8.4523 9.65945 8.30769 9.65945 8.07692C9.66406 7.94461 9.67868 7.83076 9.70791 7.73999C9.75098 7.60615 9.83868 7.44153 10.1641 7.18769C10.1794 7.17538 10.1718 7.17615 10.1879 7.16384C10.7441 6.7923 12.4448 5.63307 13.5541 4.87923C13.6169 5.04782 13.7369 5.18904 13.8931 5.27835C14.0492 5.36765 14.2318 5.39937 14.409 5.368C14.5861 5.33663 14.7467 5.24414 14.8627 5.10664C14.9788 4.96913 15.0429 4.7953 15.0441 4.61538V3.46153C15.0449 3.35189 15.0223 3.24333 14.9778 3.14313C14.9333 3.04293 14.8679 2.95341 14.7859 2.88057C14.704 2.80772 14.6074 2.75324 14.5026 2.72077C14.3979 2.6883 14.2875 2.67859 14.1787 2.6923ZM17.3518 8.31769V9.85615L13.5056 12.8361V11.2977L17.3518 8.31769Z" fill="#0A0A15"/>
</g>
<defs>
<clipPath id="clip0_77_491">
<rect width="20" height="20" fill="white" transform="translate(0.428711)"/>
</clipPath>
</defs>
</svg>
